M48
;Layer_Color=9474304
;FILE_FORMAT=2:5
INCH,LZ
;TYPE=PLATED
T1F00S00C0.03150
T2F00S00C0.03543
T3F00S00C0.03937
T4F00S00C0.13780
%
T01
X032Y0391
X03585
X03905Y0392
X04225Y0394
X05445Y03915
X05895Y0396
X0606Y03965
X06615Y0405
Y0411
X0738Y0403
X07935Y0383
X0805Y0388
X0842Y0379
X08385Y04155
X09055Y04
X0990457Y0423957
X1048Y039
X10845Y041
T02
X05755Y0386
X05855
X05955
X06055
X06155
X06255
X06355
X06455
X06875
X06975
X07075
X07175
X07275
T03
X1104488Y0469
Y0479
X1115512
Y0469
X1086512
Y0479
X1075488
Y0469
X1057512
Y0479
X1046488
Y0469
X1028512
Y0479
X1017488
Y0469
X0999512
Y0479
X0988488
Y0469
X0970512
Y0479
X0959488
Y0469
X0941512
Y0479
X0930488
Y0469
X0912512
Y0479
X0901488
Y0469
X0883512
Y0479
X0872488
Y0469
X0854512
Y0479
X0843488
Y0469
X0825512
Y0479
X0814488
Y0469
X0796512
Y0479
X0785488
Y0469
X0767512
Y0479
X0756488
Y0469
X0738512
Y0479
X0727488
Y0469
X0709512
Y0479
X0698488
Y0469
X0680512
Y0479
X0669488
Y0469
X0651512
Y0479
X0640488
Y0469
X0622512
Y0479
X0611488
Y0469
X0593512
Y0479
X0582488
Y0469
X0564512
Y0479
X0553488
Y0469
X0535512
Y0479
X0524488
Y0469
X0506512
Y0479
X0495488
Y0469
X0477512
Y0479
X0466488
Y0469
X0448512
Y0479
X0437488
Y0469
X0419512
Y0479
X0408488
Y0469
X0390512
Y0479
X0379488
Y0469
X0361512
Y0479
X0350488
Y0469
X0332512
Y0479
X0321488
Y0469
X0303512
Y0479
X0292488
Y0469
X0274512
Y0479
X0263488
Y0469
X0245512
Y0479
X0234488
Y0469
X0216512
Y0479
X0205488
Y0469
T04
X0177Y037
X06655
X11375
Y0475
X0177
M30
