%FSLAX25Y25*%
%MOIN*%
G70*
G01*
G75*
G04 Layer_Color=12632256*
%ADD10R,0.03937X0.05118*%
%ADD11R,0.05118X0.03937*%
%ADD12O,0.10236X0.02362*%
%ADD13R,0.10236X0.02362*%
%ADD14R,0.07677X0.01378*%
%ADD15O,0.07677X0.01378*%
%ADD16C,0.01000*%
%ADD17C,0.01300*%
%ADD18C,0.03000*%
%ADD19C,0.02000*%
%ADD20R,0.05906X0.05906*%
%ADD21C,0.05906*%
%ADD22R,0.05906X0.05906*%
%ADD23C,0.05906*%
%ADD24C,0.04331*%
%ADD25C,0.23622*%
%ADD26C,0.01500*%
%ADD27R,0.04737X0.05918*%
%ADD28R,0.05918X0.04737*%
%ADD29O,0.11036X0.03162*%
%ADD30R,0.11036X0.03162*%
%ADD31R,0.08477X0.02178*%
%ADD32O,0.08477X0.02178*%
%ADD33R,0.06706X0.06706*%
%ADD34C,0.06706*%
%ADD35R,0.06706X0.06706*%
%ADD36C,0.06706*%
%ADD37C,0.05131*%
%ADD38C,0.24422*%
D27*
X1107563Y453500D02*
D03*
X1115437D02*
D03*
X1078563D02*
D03*
X1086437D02*
D03*
X1049563D02*
D03*
X1057437D02*
D03*
X1020563D02*
D03*
X1028437D02*
D03*
X991563D02*
D03*
X999437D02*
D03*
X962563D02*
D03*
X970437D02*
D03*
X933563D02*
D03*
X941437D02*
D03*
X904563D02*
D03*
X912437D02*
D03*
X875563D02*
D03*
X883437D02*
D03*
X846563D02*
D03*
X854437D02*
D03*
X817563D02*
D03*
X825437D02*
D03*
X788063D02*
D03*
X795937D02*
D03*
X759563D02*
D03*
X767437D02*
D03*
X730563D02*
D03*
X738437D02*
D03*
X701563D02*
D03*
X709437D02*
D03*
X680437D02*
D03*
X672563D02*
D03*
X643563D02*
D03*
X651437D02*
D03*
X615063D02*
D03*
X622937D02*
D03*
X585563D02*
D03*
X593437D02*
D03*
X556563D02*
D03*
X564437D02*
D03*
X527563D02*
D03*
X535437D02*
D03*
X498563D02*
D03*
X506437D02*
D03*
X469563D02*
D03*
X477437D02*
D03*
X441063D02*
D03*
X448937D02*
D03*
X411563D02*
D03*
X419437D02*
D03*
X382563D02*
D03*
X390437D02*
D03*
X353563D02*
D03*
X361437D02*
D03*
X324563D02*
D03*
X332437D02*
D03*
X295563D02*
D03*
X303437D02*
D03*
X267063D02*
D03*
X274937D02*
D03*
X237563D02*
D03*
X245437D02*
D03*
X216437D02*
D03*
X208563D02*
D03*
X890437Y400000D02*
D03*
X882563D02*
D03*
X863563Y395000D02*
D03*
X871437D02*
D03*
X412437Y394000D02*
D03*
X404563D02*
D03*
D31*
X358492Y397425D02*
D03*
X826492D02*
D03*
D32*
X382508Y425575D02*
D03*
Y423016D02*
D03*
Y420457D02*
D03*
Y417898D02*
D03*
Y415339D02*
D03*
Y412780D02*
D03*
Y410220D02*
D03*
Y407661D02*
D03*
Y405102D02*
D03*
Y402543D02*
D03*
Y399984D02*
D03*
Y397425D02*
D03*
X358492Y425575D02*
D03*
Y423016D02*
D03*
Y420457D02*
D03*
Y417898D02*
D03*
Y415339D02*
D03*
Y412780D02*
D03*
Y410220D02*
D03*
Y407661D02*
D03*
Y405102D02*
D03*
Y402543D02*
D03*
Y399984D02*
D03*
X850508Y425575D02*
D03*
Y423016D02*
D03*
Y420457D02*
D03*
Y417898D02*
D03*
Y415339D02*
D03*
Y412780D02*
D03*
Y410220D02*
D03*
Y407661D02*
D03*
Y405102D02*
D03*
Y402543D02*
D03*
Y399984D02*
D03*
Y397425D02*
D03*
X826492Y425575D02*
D03*
Y423016D02*
D03*
Y420457D02*
D03*
Y417898D02*
D03*
Y415339D02*
D03*
Y412780D02*
D03*
Y410220D02*
D03*
Y407661D02*
D03*
Y405102D02*
D03*
Y402543D02*
D03*
Y399984D02*
D03*
D33*
X687500Y386000D02*
D03*
X575500D02*
D03*
D34*
X697500D02*
D03*
X707500D02*
D03*
X717500D02*
D03*
X727500D02*
D03*
X645500D02*
D03*
X635500D02*
D03*
X625500D02*
D03*
X615500D02*
D03*
X605500D02*
D03*
X595500D02*
D03*
X585500D02*
D03*
D35*
X1104488Y469000D02*
D03*
X1075488D02*
D03*
X1046488D02*
D03*
X1017488D02*
D03*
X988488D02*
D03*
X959488D02*
D03*
X930488D02*
D03*
X901488D02*
D03*
X872488D02*
D03*
X843488D02*
D03*
X814488D02*
D03*
X785488D02*
D03*
X756488D02*
D03*
X727488D02*
D03*
X698488D02*
D03*
X669488D02*
D03*
X640488D02*
D03*
X611488D02*
D03*
X582488D02*
D03*
X553488D02*
D03*
X524488D02*
D03*
X495488D02*
D03*
X466488D02*
D03*
X437488D02*
D03*
X379488D02*
D03*
X350488D02*
D03*
X321488D02*
D03*
X292488D02*
D03*
X263488D02*
D03*
X234488D02*
D03*
X205488D02*
D03*
X408488D02*
D03*
D36*
X1104488Y479000D02*
D03*
X1115512Y469000D02*
D03*
Y479000D02*
D03*
X1075488D02*
D03*
X1086512Y469000D02*
D03*
Y479000D02*
D03*
X1046488D02*
D03*
X1057512Y469000D02*
D03*
Y479000D02*
D03*
X1017488D02*
D03*
X1028512Y469000D02*
D03*
Y479000D02*
D03*
X988488D02*
D03*
X999512Y469000D02*
D03*
Y479000D02*
D03*
X959488D02*
D03*
X970512Y469000D02*
D03*
Y479000D02*
D03*
X930488D02*
D03*
X941512Y469000D02*
D03*
Y479000D02*
D03*
X901488D02*
D03*
X912512Y469000D02*
D03*
Y479000D02*
D03*
X872488D02*
D03*
X883512Y469000D02*
D03*
Y479000D02*
D03*
X843488D02*
D03*
X854512Y469000D02*
D03*
Y479000D02*
D03*
X814488D02*
D03*
X825512Y469000D02*
D03*
Y479000D02*
D03*
X785488D02*
D03*
X796512Y469000D02*
D03*
Y479000D02*
D03*
X756488D02*
D03*
X767512Y469000D02*
D03*
Y479000D02*
D03*
X727488D02*
D03*
X738512Y469000D02*
D03*
Y479000D02*
D03*
X698488D02*
D03*
X709512Y469000D02*
D03*
Y479000D02*
D03*
X669488D02*
D03*
X680512Y469000D02*
D03*
Y479000D02*
D03*
X640488D02*
D03*
X651512Y469000D02*
D03*
Y479000D02*
D03*
X611488D02*
D03*
X622512Y469000D02*
D03*
Y479000D02*
D03*
X582488D02*
D03*
X593512Y469000D02*
D03*
Y479000D02*
D03*
X553488D02*
D03*
X564512Y469000D02*
D03*
Y479000D02*
D03*
X524488D02*
D03*
X535512Y469000D02*
D03*
Y479000D02*
D03*
X495488D02*
D03*
X506512Y469000D02*
D03*
Y479000D02*
D03*
X466488D02*
D03*
X477512Y469000D02*
D03*
Y479000D02*
D03*
X437488D02*
D03*
X448512Y469000D02*
D03*
Y479000D02*
D03*
X379488D02*
D03*
X390512Y469000D02*
D03*
Y479000D02*
D03*
X350488D02*
D03*
X361512Y469000D02*
D03*
Y479000D02*
D03*
X321488D02*
D03*
X332512Y469000D02*
D03*
Y479000D02*
D03*
X292488D02*
D03*
X303512Y469000D02*
D03*
Y479000D02*
D03*
X263488D02*
D03*
X274512Y469000D02*
D03*
Y479000D02*
D03*
X234488D02*
D03*
X245512Y469000D02*
D03*
Y479000D02*
D03*
X205488D02*
D03*
X216512Y469000D02*
D03*
Y479000D02*
D03*
X408488D02*
D03*
X419512Y469000D02*
D03*
Y479000D02*
D03*
D37*
X320000Y391000D02*
D03*
X838500Y415500D02*
D03*
X990457Y423957D02*
D03*
X1084500Y410000D02*
D03*
X422500Y394000D02*
D03*
X1048000Y390000D02*
D03*
X905500Y400000D02*
D03*
X390500Y392000D02*
D03*
X358500Y391000D02*
D03*
X544500Y391500D02*
D03*
X589500Y396000D02*
D03*
X661500Y411000D02*
D03*
Y405000D02*
D03*
X606000Y396500D02*
D03*
X738000Y403000D02*
D03*
X842000Y379000D02*
D03*
X793500Y383000D02*
D03*
X805000Y388000D02*
D03*
D38*
X177000Y475000D02*
D03*
Y370000D02*
D03*
X665500D02*
D03*
X1137500Y475000D02*
D03*
Y370000D02*
D03*
M02*
